<mxfile host="app.diagrams.net" modified="2021-01-23T14:09:49.425Z" agent="5.0 (X11; Linux x86_64) AppleWebKit/537.36 (KHTML, like Gecko) Chrome/88.0.4324.96 Safari/537.36" etag="PmXSSUebfHrkSC1uu4k8" version="14.2.7" type="github">
  <diagram name="Page-1" id="b520641d-4fe3-3701-9064-5fc419738815">
    <mxGraphModel dx="1422" dy="772" grid="1" gridSize="10" guides="1" tooltips="1" connect="1" arrows="1" fold="1" page="1" pageScale="1" pageWidth="1100" pageHeight="850" background="#ffffff" math="0" shadow="0">
      <root>
        <mxCell id="0" />
        <mxCell id="1" parent="0" />
        <mxCell id="yYCxjWseCUKF4XzvSQsX-28" style="edgeStyle=orthogonalEdgeStyle;rounded=0;orthogonalLoop=1;jettySize=auto;html=1;exitX=1;exitY=0.5;exitDx=0;exitDy=0;entryX=0;entryY=0.5;entryDx=0;entryDy=0;fontSize=14;" parent="1" source="yYCxjWseCUKF4XzvSQsX-1" target="yYCxjWseCUKF4XzvSQsX-11" edge="1">
          <mxGeometry relative="1" as="geometry" />
        </mxCell>
        <mxCell id="yYCxjWseCUKF4XzvSQsX-71" style="edgeStyle=orthogonalEdgeStyle;rounded=0;orthogonalLoop=1;jettySize=auto;html=1;exitX=0.5;exitY=0;exitDx=0;exitDy=0;entryX=0;entryY=0.5;entryDx=0;entryDy=0;fontSize=14;" parent="1" source="yYCxjWseCUKF4XzvSQsX-1" target="yYCxjWseCUKF4XzvSQsX-8" edge="1">
          <mxGeometry relative="1" as="geometry" />
        </mxCell>
        <mxCell id="HrgiwSv1cLiDsA_jRhSZ-7" style="edgeStyle=orthogonalEdgeStyle;rounded=0;orthogonalLoop=1;jettySize=auto;html=1;exitX=1;exitY=0.5;exitDx=0;exitDy=0;entryX=1;entryY=0.5;entryDx=0;entryDy=0;strokeWidth=1;" edge="1" parent="1">
          <mxGeometry relative="1" as="geometry">
            <mxPoint x="161" y="320" as="sourcePoint" />
            <mxPoint x="306" y="650" as="targetPoint" />
            <Array as="points">
              <mxPoint x="362" y="320" />
              <mxPoint x="362" y="650" />
            </Array>
          </mxGeometry>
        </mxCell>
        <mxCell id="yYCxjWseCUKF4XzvSQsX-1" value="&lt;font style=&quot;font-size: 24px&quot;&gt;Collaborator&lt;/font&gt;" style="rounded=0;whiteSpace=wrap;html=1;" parent="1" vertex="1">
          <mxGeometry y="280" width="159" height="80" as="geometry" />
        </mxCell>
        <mxCell id="yYCxjWseCUKF4XzvSQsX-47" style="edgeStyle=orthogonalEdgeStyle;rounded=0;orthogonalLoop=1;jettySize=auto;html=1;exitX=1;exitY=0.5;exitDx=0;exitDy=0;entryX=0.5;entryY=1;entryDx=0;entryDy=0;fontSize=14;" parent="1" source="yYCxjWseCUKF4XzvSQsX-2" target="yYCxjWseCUKF4XzvSQsX-5" edge="1">
          <mxGeometry relative="1" as="geometry">
            <Array as="points">
              <mxPoint x="760" y="480" />
            </Array>
          </mxGeometry>
        </mxCell>
        <mxCell id="yYCxjWseCUKF4XzvSQsX-48" style="edgeStyle=orthogonalEdgeStyle;rounded=0;orthogonalLoop=1;jettySize=auto;html=1;exitX=1;exitY=0.5;exitDx=0;exitDy=0;entryX=0.5;entryY=1;entryDx=0;entryDy=0;fontSize=14;" parent="1" source="yYCxjWseCUKF4XzvSQsX-2" target="yYCxjWseCUKF4XzvSQsX-6" edge="1">
          <mxGeometry relative="1" as="geometry" />
        </mxCell>
        <mxCell id="yYCxjWseCUKF4XzvSQsX-51" value="user infos" style="edgeLabel;html=1;align=center;verticalAlign=middle;resizable=0;points=[];fontSize=14;" parent="yYCxjWseCUKF4XzvSQsX-48" vertex="1" connectable="0">
          <mxGeometry x="0.637" y="1" relative="1" as="geometry">
            <mxPoint x="0.97" y="77.71000000000001" as="offset" />
          </mxGeometry>
        </mxCell>
        <mxCell id="yYCxjWseCUKF4XzvSQsX-49" style="edgeStyle=orthogonalEdgeStyle;rounded=0;orthogonalLoop=1;jettySize=auto;html=1;exitX=1;exitY=0.5;exitDx=0;exitDy=0;entryX=0.5;entryY=1;entryDx=0;entryDy=0;fontSize=14;" parent="1" source="yYCxjWseCUKF4XzvSQsX-2" target="yYCxjWseCUKF4XzvSQsX-7" edge="1">
          <mxGeometry relative="1" as="geometry" />
        </mxCell>
        <mxCell id="yYCxjWseCUKF4XzvSQsX-50" value="user infos" style="edgeLabel;html=1;align=center;verticalAlign=middle;resizable=0;points=[];fontSize=14;" parent="yYCxjWseCUKF4XzvSQsX-49" vertex="1" connectable="0">
          <mxGeometry x="-0.8195" y="1" relative="1" as="geometry">
            <mxPoint x="123.35000000000001" y="-39" as="offset" />
          </mxGeometry>
        </mxCell>
        <mxCell id="yYCxjWseCUKF4XzvSQsX-52" value="user id" style="edgeLabel;html=1;align=center;verticalAlign=middle;resizable=0;points=[];fontSize=14;rotation=0;" parent="yYCxjWseCUKF4XzvSQsX-49" vertex="1" connectable="0">
          <mxGeometry x="0.7245" y="-5" relative="1" as="geometry">
            <mxPoint x="-5.020000000000003" y="81.82" as="offset" />
          </mxGeometry>
        </mxCell>
        <mxCell id="yYCxjWseCUKF4XzvSQsX-67" style="edgeStyle=orthogonalEdgeStyle;rounded=0;orthogonalLoop=1;jettySize=auto;html=1;exitX=0;exitY=0.5;exitDx=0;exitDy=0;entryX=1;entryY=0.5;entryDx=0;entryDy=0;fontSize=14;" parent="1" source="yYCxjWseCUKF4XzvSQsX-2" target="yYCxjWseCUKF4XzvSQsX-4" edge="1">
          <mxGeometry relative="1" as="geometry" />
        </mxCell>
        <mxCell id="yYCxjWseCUKF4XzvSQsX-68" style="edgeStyle=orthogonalEdgeStyle;rounded=0;orthogonalLoop=1;jettySize=auto;html=1;exitX=0;exitY=0.5;exitDx=0;exitDy=0;entryX=1;entryY=0.5;entryDx=0;entryDy=0;fontSize=14;" parent="1" source="yYCxjWseCUKF4XzvSQsX-2" target="yYCxjWseCUKF4XzvSQsX-3" edge="1">
          <mxGeometry relative="1" as="geometry" />
        </mxCell>
        <mxCell id="yYCxjWseCUKF4XzvSQsX-72" style="edgeStyle=orthogonalEdgeStyle;rounded=0;orthogonalLoop=1;jettySize=auto;html=1;exitX=0;exitY=0.5;exitDx=0;exitDy=0;entryX=1;entryY=0.5;entryDx=0;entryDy=0;fontSize=14;" parent="1" source="yYCxjWseCUKF4XzvSQsX-2" target="yYCxjWseCUKF4XzvSQsX-11" edge="1">
          <mxGeometry relative="1" as="geometry" />
        </mxCell>
        <mxCell id="yYCxjWseCUKF4XzvSQsX-74" style="edgeStyle=orthogonalEdgeStyle;rounded=0;orthogonalLoop=1;jettySize=auto;html=1;exitX=0.5;exitY=0;exitDx=0;exitDy=0;entryX=0;entryY=0.5;entryDx=0;entryDy=0;fontSize=14;" parent="1" source="yYCxjWseCUKF4XzvSQsX-2" target="yYCxjWseCUKF4XzvSQsX-8" edge="1">
          <mxGeometry relative="1" as="geometry" />
        </mxCell>
        <mxCell id="yYCxjWseCUKF4XzvSQsX-2" value="&lt;font style=&quot;font-size: 24px&quot;&gt;Admin&lt;/font&gt;" style="rounded=0;whiteSpace=wrap;html=1;" parent="1" vertex="1">
          <mxGeometry x="420" y="440" width="159" height="80" as="geometry" />
        </mxCell>
        <mxCell id="yYCxjWseCUKF4XzvSQsX-41" style="edgeStyle=orthogonalEdgeStyle;rounded=0;orthogonalLoop=1;jettySize=auto;html=1;exitX=0;exitY=0.5;exitDx=0;exitDy=0;entryX=1;entryY=0.5;entryDx=0;entryDy=0;fontSize=14;" parent="1" source="yYCxjWseCUKF4XzvSQsX-3" target="yYCxjWseCUKF4XzvSQsX-37" edge="1">
          <mxGeometry relative="1" as="geometry" />
        </mxCell>
        <mxCell id="yYCxjWseCUKF4XzvSQsX-3" value="&lt;font style=&quot;font-size: 20px&quot;&gt;Send new message&lt;/font&gt;" style="ellipse;whiteSpace=wrap;html=1;aspect=fixed;" parent="1" vertex="1">
          <mxGeometry x="204" y="720" width="100" height="100" as="geometry" />
        </mxCell>
        <mxCell id="yYCxjWseCUKF4XzvSQsX-39" style="edgeStyle=orthogonalEdgeStyle;rounded=0;orthogonalLoop=1;jettySize=auto;html=1;exitX=0;exitY=0.5;exitDx=0;exitDy=0;entryX=1;entryY=0.5;entryDx=0;entryDy=0;fontSize=14;" parent="1" source="yYCxjWseCUKF4XzvSQsX-4" target="yYCxjWseCUKF4XzvSQsX-37" edge="1">
          <mxGeometry relative="1" as="geometry" />
        </mxCell>
        <mxCell id="yYCxjWseCUKF4XzvSQsX-61" value="Message&lt;br&gt;sent" style="edgeLabel;html=1;align=center;verticalAlign=middle;resizable=0;points=[];fontSize=14;" parent="yYCxjWseCUKF4XzvSQsX-39" vertex="1" connectable="0">
          <mxGeometry x="0.2083" y="-1" relative="1" as="geometry">
            <mxPoint x="9" y="15" as="offset" />
          </mxGeometry>
        </mxCell>
        <mxCell id="yYCxjWseCUKF4XzvSQsX-4" value="&lt;font style=&quot;font-size: 20px&quot;&gt;Answer message&lt;/font&gt;" style="ellipse;whiteSpace=wrap;html=1;aspect=fixed;" parent="1" vertex="1">
          <mxGeometry x="204" y="600" width="100" height="100" as="geometry" />
        </mxCell>
        <mxCell id="yYCxjWseCUKF4XzvSQsX-44" style="edgeStyle=orthogonalEdgeStyle;rounded=0;orthogonalLoop=1;jettySize=auto;html=1;exitX=0.5;exitY=0;exitDx=0;exitDy=0;entryX=1;entryY=0.5;entryDx=0;entryDy=0;fontSize=14;" parent="1" source="yYCxjWseCUKF4XzvSQsX-5" target="yYCxjWseCUKF4XzvSQsX-14" edge="1">
          <mxGeometry relative="1" as="geometry" />
        </mxCell>
        <mxCell id="yYCxjWseCUKF4XzvSQsX-5" value="&lt;font style=&quot;font-size: 20px&quot;&gt;Create user&lt;/font&gt;" style="ellipse;whiteSpace=wrap;html=1;aspect=fixed;" parent="1" vertex="1">
          <mxGeometry x="710" y="170" width="100" height="100" as="geometry" />
        </mxCell>
        <mxCell id="yYCxjWseCUKF4XzvSQsX-45" style="edgeStyle=orthogonalEdgeStyle;rounded=0;orthogonalLoop=1;jettySize=auto;html=1;exitX=0.5;exitY=0;exitDx=0;exitDy=0;entryX=1;entryY=0.5;entryDx=0;entryDy=0;fontSize=14;" parent="1" source="yYCxjWseCUKF4XzvSQsX-6" target="yYCxjWseCUKF4XzvSQsX-14" edge="1">
          <mxGeometry relative="1" as="geometry" />
        </mxCell>
        <mxCell id="yYCxjWseCUKF4XzvSQsX-6" value="&lt;font style=&quot;font-size: 20px&quot;&gt;Modify user&lt;/font&gt;" style="ellipse;whiteSpace=wrap;html=1;aspect=fixed;" parent="1" vertex="1">
          <mxGeometry x="830" y="170" width="100" height="100" as="geometry" />
        </mxCell>
        <mxCell id="yYCxjWseCUKF4XzvSQsX-46" style="edgeStyle=orthogonalEdgeStyle;rounded=0;orthogonalLoop=1;jettySize=auto;html=1;exitX=0.5;exitY=0;exitDx=0;exitDy=0;entryX=1;entryY=0.5;entryDx=0;entryDy=0;fontSize=14;" parent="1" source="yYCxjWseCUKF4XzvSQsX-7" target="yYCxjWseCUKF4XzvSQsX-14" edge="1">
          <mxGeometry relative="1" as="geometry" />
        </mxCell>
        <mxCell id="yYCxjWseCUKF4XzvSQsX-53" value="changes made" style="edgeLabel;html=1;align=center;verticalAlign=middle;resizable=0;points=[];fontSize=14;" parent="yYCxjWseCUKF4XzvSQsX-46" vertex="1" connectable="0">
          <mxGeometry x="0.7503" y="-4" relative="1" as="geometry">
            <mxPoint x="13" y="-6" as="offset" />
          </mxGeometry>
        </mxCell>
        <mxCell id="yYCxjWseCUKF4XzvSQsX-7" value="&lt;font style=&quot;font-size: 20px&quot;&gt;Delete user&lt;/font&gt;" style="ellipse;whiteSpace=wrap;html=1;aspect=fixed;" parent="1" vertex="1">
          <mxGeometry x="960" y="170" width="100" height="100" as="geometry" />
        </mxCell>
        <mxCell id="yYCxjWseCUKF4XzvSQsX-70" style="edgeStyle=orthogonalEdgeStyle;rounded=0;orthogonalLoop=1;jettySize=auto;html=1;exitX=0.5;exitY=0;exitDx=0;exitDy=0;entryX=0.5;entryY=1;entryDx=0;entryDy=0;fontSize=14;" parent="1" source="yYCxjWseCUKF4XzvSQsX-8" target="yYCxjWseCUKF4XzvSQsX-14" edge="1">
          <mxGeometry relative="1" as="geometry" />
        </mxCell>
        <mxCell id="yYCxjWseCUKF4XzvSQsX-8" value="&lt;font style=&quot;font-size: 20px&quot;&gt;Change password&lt;/font&gt;" style="ellipse;whiteSpace=wrap;html=1;aspect=fixed;" parent="1" vertex="1">
          <mxGeometry x="564.5" y="170" width="100" height="100" as="geometry" />
        </mxCell>
        <mxCell id="yYCxjWseCUKF4XzvSQsX-9" value="&lt;font style=&quot;font-size: 24px&quot;&gt;Anonymous user&lt;/font&gt;" style="rounded=0;whiteSpace=wrap;html=1;" parent="1" vertex="1">
          <mxGeometry y="40" width="159" height="80" as="geometry" />
        </mxCell>
        <mxCell id="yYCxjWseCUKF4XzvSQsX-10" value="&lt;span style=&quot;font-size: 20px&quot;&gt;login&lt;/span&gt;" style="ellipse;whiteSpace=wrap;html=1;aspect=fixed;" parent="1" vertex="1">
          <mxGeometry x="304" y="30" width="100" height="100" as="geometry" />
        </mxCell>
        <mxCell id="yYCxjWseCUKF4XzvSQsX-11" value="&lt;span style=&quot;font-size: 20px&quot;&gt;logout&lt;/span&gt;" style="ellipse;whiteSpace=wrap;html=1;aspect=fixed;" parent="1" vertex="1">
          <mxGeometry x="204" y="470" width="100" height="100" as="geometry" />
        </mxCell>
        <mxCell id="yYCxjWseCUKF4XzvSQsX-12" value="" style="endArrow=classic;html=1;entryX=0;entryY=0.5;entryDx=0;entryDy=0;exitX=1;exitY=0.5;exitDx=0;exitDy=0;" parent="1" source="yYCxjWseCUKF4XzvSQsX-9" target="yYCxjWseCUKF4XzvSQsX-10" edge="1">
          <mxGeometry width="50" height="50" relative="1" as="geometry">
            <mxPoint x="520" y="330" as="sourcePoint" />
            <mxPoint x="570" y="280" as="targetPoint" />
          </mxGeometry>
        </mxCell>
        <mxCell id="yYCxjWseCUKF4XzvSQsX-23" value="input creds" style="edgeLabel;html=1;align=center;verticalAlign=middle;resizable=0;points=[];fontSize=14;" parent="yYCxjWseCUKF4XzvSQsX-12" vertex="1" connectable="0">
          <mxGeometry x="-0.2231" y="1" relative="1" as="geometry">
            <mxPoint x="4" y="-9" as="offset" />
          </mxGeometry>
        </mxCell>
        <mxCell id="yYCxjWseCUKF4XzvSQsX-14" value="&lt;font style=&quot;font-size: 24px&quot;&gt;Users&lt;/font&gt;" style="shape=partialRectangle;whiteSpace=wrap;html=1;left=0;right=0;fillColor=none;" parent="1" vertex="1">
          <mxGeometry x="554.5" y="50" width="120" height="60" as="geometry" />
        </mxCell>
        <mxCell id="yYCxjWseCUKF4XzvSQsX-15" value="" style="endArrow=classic;html=1;exitX=1;exitY=0.5;exitDx=0;exitDy=0;entryX=0;entryY=0.5;entryDx=0;entryDy=0;" parent="1" source="yYCxjWseCUKF4XzvSQsX-10" target="yYCxjWseCUKF4XzvSQsX-14" edge="1">
          <mxGeometry width="50" height="50" relative="1" as="geometry">
            <mxPoint x="520" y="320" as="sourcePoint" />
            <mxPoint x="490" y="80" as="targetPoint" />
          </mxGeometry>
        </mxCell>
        <mxCell id="yYCxjWseCUKF4XzvSQsX-16" value="verify creds" style="edgeLabel;html=1;align=center;verticalAlign=middle;resizable=0;points=[];fontSize=14;" parent="yYCxjWseCUKF4XzvSQsX-15" vertex="1" connectable="0">
          <mxGeometry x="-0.26" y="-1" relative="1" as="geometry">
            <mxPoint x="13" y="-11" as="offset" />
          </mxGeometry>
        </mxCell>
        <mxCell id="yYCxjWseCUKF4XzvSQsX-37" value="&lt;font style=&quot;font-size: 24px&quot;&gt;Message&lt;/font&gt;" style="shape=partialRectangle;whiteSpace=wrap;html=1;left=0;right=0;fillColor=none;" parent="1" vertex="1">
          <mxGeometry y="680" width="120" height="60" as="geometry" />
        </mxCell>
        <mxCell id="yYCxjWseCUKF4XzvSQsX-59" value="title,&lt;br&gt;recipient,&amp;nbsp;&lt;br&gt;body" style="edgeLabel;html=1;align=center;verticalAlign=middle;resizable=0;points=[];fontSize=14;" parent="1" vertex="1" connectable="0">
          <mxGeometry x="370" y="600" as="geometry">
            <mxPoint x="-5" y="102" as="offset" />
          </mxGeometry>
        </mxCell>
        <mxCell id="yYCxjWseCUKF4XzvSQsX-60" value="password &lt;br&gt;changed" style="text;html=1;align=center;verticalAlign=middle;resizable=0;points=[];autosize=1;fontSize=14;" parent="1" vertex="1">
          <mxGeometry x="430" y="180" width="80" height="40" as="geometry" />
        </mxCell>
        <mxCell id="HrgiwSv1cLiDsA_jRhSZ-2" value="" style="endArrow=none;dashed=1;html=1;strokeColor=#FF0000;strokeWidth=3;" edge="1" parent="1">
          <mxGeometry width="50" height="50" relative="1" as="geometry">
            <mxPoint x="320" y="180" as="sourcePoint" />
            <mxPoint x="320" y="10" as="targetPoint" />
            <Array as="points">
              <mxPoint x="270" y="80" />
            </Array>
          </mxGeometry>
        </mxCell>
        <mxCell id="HrgiwSv1cLiDsA_jRhSZ-3" value="" style="endArrow=none;dashed=1;html=1;strokeColor=#FF0000;strokeWidth=3;" edge="1" parent="1">
          <mxGeometry width="50" height="50" relative="1" as="geometry">
            <mxPoint x="10" y="140" as="sourcePoint" />
            <mxPoint x="1080" y="590" as="targetPoint" />
            <Array as="points">
              <mxPoint x="400" y="370" />
            </Array>
          </mxGeometry>
        </mxCell>
        <mxCell id="HrgiwSv1cLiDsA_jRhSZ-4" value="" style="endArrow=none;dashed=1;html=1;strokeColor=#FF0000;strokeWidth=3;" edge="1" parent="1">
          <mxGeometry width="50" height="50" relative="1" as="geometry">
            <mxPoint x="10" y="380" as="sourcePoint" />
            <mxPoint x="830" y="810" as="targetPoint" />
            <Array as="points">
              <mxPoint x="280" y="465" />
            </Array>
          </mxGeometry>
        </mxCell>
      </root>
    </mxGraphModel>
  </diagram>
</mxfile>
